<svg width="205" height="206" viewBox="0 0 205 206" fill="none" xmlns="http://www.w3.org/2000/svg">
    <path fill-rule="evenodd" clip-rule="evenodd"
          d="M25.138 180.642C36.717 133.754 36.4105 163.773 24.429 131.591C12.2064 98.76 20.3743 68.2396 39.1873 45.5012C68.0198 10.6536 129.207 6.81129 163.781 41.3826C221.325 98.9206 171.974 197.283 90.1765 184.406C77.1663 182.357 63.4292 173.505 57.7693 172.728C52.3714 171.987 33.4122 179.218 25.138 180.642ZM0 205.693C14.6699 202.854 30.7892 196.679 44.1097 192.427C69.0951 184.451 103.689 226.179 166.819 179.734C212.494 146.131 217.14 71.2114 175.128 30.0354C128.57 -15.5949 62.1154 -6.22126 24.9014 37.8711C8.09651 57.782 -2.71293 89.5429 4.79397 122.858C8.87094 140.954 19.194 147.505 13.3387 163.926C8.77152 176.736 2.6725 191.755 0 205.693Z"
          fill="#0082BA"/>
    <path fill-rule="evenodd" clip-rule="evenodd" d="M59.1273 148.117H84.0042V57.2034H59.1273V148.117Z" fill="#002855"/>
    <path fill-rule="evenodd" clip-rule="evenodd" d="M87.1703 148.117H127.878V125.954H87.1703V148.117Z" fill="#0082BA"/>
    <path fill-rule="evenodd" clip-rule="evenodd"
          d="M122.983 61.1507V61.8439C125.871 63.2298 128.873 62.9724 128.873 69.4664C128.873 72.933 125.116 77.0463 122.983 78.4749V97.5313C124.565 97.1628 127.558 94.6105 129.075 93.576C138.074 87.4392 148.276 80.2967 148.276 68.0805C148.276 60.5139 145.982 55.4538 141.437 51.3587C139.585 49.6912 136.801 48.1472 134.53 47.1778C130.845 45.6048 127.198 45.2128 122.983 45.2128V61.1507Z"
          fill="#002855"/>
    <path fill-rule="evenodd" clip-rule="evenodd"
          d="M94.5442 114.162L94.5521 114.509L94.918 114.855H120.558V80.9003C119.455 81.1947 119.689 81.2835 118.823 81.9378L104.524 92.932C103.921 93.3893 103.516 93.6936 102.943 94.1222C102.176 94.6948 101.912 94.9578 101.215 95.5127C100.296 96.244 95.5767 100.035 94.5714 100.303L94.5442 114.162Z"
          fill="#0082BA"/>
    <path fill-rule="evenodd" clip-rule="evenodd" d="M122.983 114.855H148.969V99.2635H122.983V114.855Z" fill="#0082BA"/>
    <path fill-rule="evenodd" clip-rule="evenodd"
          d="M94.918 60.1113C97.3629 61.4051 101.841 65.897 104.48 67.8737C108.541 70.9155 107.516 71.4099 109.072 69.4147C111.449 66.3653 116.362 62.1927 120.558 61.8439V45.2128C114.601 45.2128 108.776 47.4034 105.103 49.8548C102.384 51.6701 96.5307 57.0639 94.918 60.1113Z"
          fill="#002855"/>
</svg>
